%TF.GenerationSoftware,KiCad,Pcbnew,5.1.7-a382d34a8~88~ubuntu16.04.1*%
%TF.CreationDate,2021-06-30T18:42:27+02:00*%
%TF.ProjectId,555-drum-trigger,3535352d-6472-4756-9d2d-747269676765,rev?*%
%TF.SameCoordinates,Original*%
%TF.FileFunction,Legend,Top*%
%TF.FilePolarity,Positive*%
%FSLAX46Y46*%
G04 Gerber Fmt 4.6, Leading zero omitted, Abs format (unit mm)*
G04 Created by KiCad (PCBNEW 5.1.7-a382d34a8~88~ubuntu16.04.1) date 2021-06-30 18:42:27*
%MOMM*%
%LPD*%
G01*
G04 APERTURE LIST*
%ADD10C,0.150000*%
%ADD11C,0.120000*%
G04 APERTURE END LIST*
D10*
X114998500Y-67691000D02*
X113982500Y-67691000D01*
X113347500Y-66675000D02*
X113347500Y-67564000D01*
X114998500Y-87249000D02*
X114998500Y-88265000D01*
X114998500Y-88265000D02*
X113982500Y-88265000D01*
X113982500Y-87249000D02*
X114998500Y-87249000D01*
X113982500Y-86614000D02*
X114871500Y-86614000D01*
X114871500Y-86614000D02*
X114617500Y-86360000D01*
X114871500Y-86614000D02*
X114617500Y-86868000D01*
X114998500Y-86868000D02*
X114998500Y-86360000D01*
X113982500Y-88265000D02*
X113982500Y-88773000D01*
X113982500Y-67691000D02*
X113982500Y-68199000D01*
X114998500Y-66675000D02*
X114998500Y-67691000D01*
X113347500Y-67564000D02*
X113601500Y-67310000D01*
X113093500Y-67691000D02*
X113601500Y-67691000D01*
X113982500Y-66675000D02*
X114998500Y-66675000D01*
X113347500Y-67564000D02*
X113093500Y-67310000D01*
X85907619Y-76946190D02*
X86907619Y-76946190D01*
X85907619Y-77422380D02*
X86907619Y-77422380D01*
X85907619Y-77993809D01*
X86907619Y-77993809D01*
X86907619Y-84090000D02*
X86907619Y-84280476D01*
X86860000Y-84375714D01*
X86764761Y-84470952D01*
X86574285Y-84518571D01*
X86240952Y-84518571D01*
X86050476Y-84470952D01*
X85955238Y-84375714D01*
X85907619Y-84280476D01*
X85907619Y-84090000D01*
X85955238Y-83994761D01*
X86050476Y-83899523D01*
X86240952Y-83851904D01*
X86574285Y-83851904D01*
X86764761Y-83899523D01*
X86860000Y-83994761D01*
X86907619Y-84090000D01*
X86907619Y-84947142D02*
X86098095Y-84947142D01*
X86002857Y-84994761D01*
X85955238Y-85042380D01*
X85907619Y-85137619D01*
X85907619Y-85328095D01*
X85955238Y-85423333D01*
X86002857Y-85470952D01*
X86098095Y-85518571D01*
X86907619Y-85518571D01*
X86907619Y-85851904D02*
X86907619Y-86423333D01*
X85907619Y-86137619D02*
X86907619Y-86137619D01*
X85907619Y-68516666D02*
X86907619Y-68516666D01*
X86907619Y-68897619D01*
X86860000Y-68992857D01*
X86812380Y-69040476D01*
X86717142Y-69088095D01*
X86574285Y-69088095D01*
X86479047Y-69040476D01*
X86431428Y-68992857D01*
X86383809Y-68897619D01*
X86383809Y-68516666D01*
X86907619Y-69421428D02*
X85907619Y-69659523D01*
X86621904Y-69850000D01*
X85907619Y-70040476D01*
X86907619Y-70278571D01*
X85907619Y-71230952D02*
X86383809Y-70897619D01*
X85907619Y-70659523D02*
X86907619Y-70659523D01*
X86907619Y-71040476D01*
X86860000Y-71135714D01*
X86812380Y-71183333D01*
X86717142Y-71230952D01*
X86574285Y-71230952D01*
X86479047Y-71183333D01*
X86431428Y-71135714D01*
X86383809Y-71040476D01*
X86383809Y-70659523D01*
X86620357Y-66916666D02*
X86620357Y-67526190D01*
X86315595Y-67221428D02*
X86925119Y-67221428D01*
X86620357Y-72173809D02*
X86620357Y-72783333D01*
X86620357Y-74536666D02*
X86620357Y-75146190D01*
X86315595Y-74841428D02*
X86925119Y-74841428D01*
X86620357Y-79793809D02*
X86620357Y-80403333D01*
X86620357Y-82156666D02*
X86620357Y-82766190D01*
X86315595Y-82461428D02*
X86925119Y-82461428D01*
X86620357Y-87413809D02*
X86620357Y-88023333D01*
D11*
%TO.C,D2*%
X95216000Y-75910000D02*
X95060000Y-75910000D01*
X92900000Y-75910000D02*
X92744000Y-75910000D01*
X95759042Y-76578311D02*
G75*
G03*
X95215516Y-75910000I-1779042J-891689D01*
G01*
X92901392Y-79142335D02*
G75*
G02*
X92744484Y-75910000I1078608J1672335D01*
G01*
X92900163Y-78511130D02*
G75*
G02*
X92900000Y-76429039I1079837J1041130D01*
G01*
X95759526Y-78361689D02*
G75*
G02*
X95216000Y-79030000I-1779042J891689D01*
G01*
%TO.C,C1*%
X128485000Y-75050000D02*
X128170000Y-75050000D01*
X130910000Y-75050000D02*
X130595000Y-75050000D01*
X128485000Y-69810000D02*
X128170000Y-69810000D01*
X130910000Y-69810000D02*
X130595000Y-69810000D01*
X128170000Y-69810000D02*
X128170000Y-75050000D01*
X130910000Y-69810000D02*
X130910000Y-75050000D01*
%TO.C,C2*%
X130910000Y-79890000D02*
X130910000Y-85130000D01*
X128170000Y-79890000D02*
X128170000Y-85130000D01*
X130910000Y-79890000D02*
X130595000Y-79890000D01*
X128485000Y-79890000D02*
X128170000Y-79890000D01*
X130910000Y-85130000D02*
X130595000Y-85130000D01*
X128485000Y-85130000D02*
X128170000Y-85130000D01*
%TO.C,RV1*%
X125535000Y-71110000D02*
X115765000Y-71110000D01*
X125535000Y-66040000D02*
X115765000Y-66040000D01*
X125535000Y-71110000D02*
X125535000Y-66040000D01*
X115765000Y-71110000D02*
X115765000Y-66040000D01*
%TO.C,RV2*%
X125535000Y-83830000D02*
X125535000Y-88900000D01*
X115765000Y-83830000D02*
X115765000Y-88900000D01*
X115765000Y-88900000D02*
X125535000Y-88900000D01*
X115765000Y-83830000D02*
X125535000Y-83830000D01*
%TO.C,U1*%
X115510000Y-78470000D02*
X115510000Y-80120000D01*
X115510000Y-80120000D02*
X125790000Y-80120000D01*
X125790000Y-80120000D02*
X125790000Y-74820000D01*
X125790000Y-74820000D02*
X115510000Y-74820000D01*
X115510000Y-74820000D02*
X115510000Y-76470000D01*
X115510000Y-76470000D02*
G75*
G02*
X115510000Y-78470000I0J-1000000D01*
G01*
%TO.C,C3*%
X97690000Y-80010000D02*
X97690000Y-74770000D01*
X100430000Y-80010000D02*
X100430000Y-74770000D01*
X97690000Y-80010000D02*
X98005000Y-80010000D01*
X100115000Y-80010000D02*
X100430000Y-80010000D01*
X97690000Y-74770000D02*
X98005000Y-74770000D01*
X100115000Y-74770000D02*
X100430000Y-74770000D01*
%TO.C,R3*%
X111530000Y-80550000D02*
X111860000Y-80550000D01*
X111860000Y-80550000D02*
X111860000Y-87090000D01*
X111860000Y-87090000D02*
X111530000Y-87090000D01*
X109450000Y-80550000D02*
X109120000Y-80550000D01*
X109120000Y-80550000D02*
X109120000Y-87090000D01*
X109120000Y-87090000D02*
X109450000Y-87090000D01*
%TO.C,R5*%
X103910000Y-80550000D02*
X104240000Y-80550000D01*
X104240000Y-80550000D02*
X104240000Y-87090000D01*
X104240000Y-87090000D02*
X103910000Y-87090000D01*
X101830000Y-80550000D02*
X101500000Y-80550000D01*
X101500000Y-80550000D02*
X101500000Y-87090000D01*
X101500000Y-87090000D02*
X101830000Y-87090000D01*
%TO.C,R4*%
X105640000Y-87090000D02*
X105310000Y-87090000D01*
X105310000Y-87090000D02*
X105310000Y-80550000D01*
X105310000Y-80550000D02*
X105640000Y-80550000D01*
X107720000Y-87090000D02*
X108050000Y-87090000D01*
X108050000Y-87090000D02*
X108050000Y-80550000D01*
X108050000Y-80550000D02*
X107720000Y-80550000D01*
%TO.C,D1*%
X111610000Y-69000000D02*
X109370000Y-69000000D01*
X109370000Y-69000000D02*
X109370000Y-73240000D01*
X109370000Y-73240000D02*
X111610000Y-73240000D01*
X111610000Y-73240000D02*
X111610000Y-69000000D01*
X110490000Y-68350000D02*
X110490000Y-69000000D01*
X110490000Y-73890000D02*
X110490000Y-73240000D01*
X111610000Y-69720000D02*
X109370000Y-69720000D01*
X111610000Y-69840000D02*
X109370000Y-69840000D01*
X111610000Y-69600000D02*
X109370000Y-69600000D01*
%TO.C,R2*%
X104240000Y-67850000D02*
X103910000Y-67850000D01*
X104240000Y-74390000D02*
X104240000Y-67850000D01*
X103910000Y-74390000D02*
X104240000Y-74390000D01*
X101500000Y-67850000D02*
X101830000Y-67850000D01*
X101500000Y-74390000D02*
X101500000Y-67850000D01*
X101830000Y-74390000D02*
X101500000Y-74390000D01*
%TO.C,R1*%
X107720000Y-67850000D02*
X108050000Y-67850000D01*
X108050000Y-67850000D02*
X108050000Y-74390000D01*
X108050000Y-74390000D02*
X107720000Y-74390000D01*
X105640000Y-67850000D02*
X105310000Y-67850000D01*
X105310000Y-67850000D02*
X105310000Y-74390000D01*
X105310000Y-74390000D02*
X105640000Y-74390000D01*
%TO.C,D2*%
D10*
X95205595Y-76879523D02*
X96005595Y-76879523D01*
X96005595Y-77070000D01*
X95967500Y-77184285D01*
X95891309Y-77260476D01*
X95815119Y-77298571D01*
X95662738Y-77336666D01*
X95548452Y-77336666D01*
X95396071Y-77298571D01*
X95319880Y-77260476D01*
X95243690Y-77184285D01*
X95205595Y-77070000D01*
X95205595Y-76879523D01*
X95929404Y-77641428D02*
X95967500Y-77679523D01*
X96005595Y-77755714D01*
X96005595Y-77946190D01*
X95967500Y-78022380D01*
X95929404Y-78060476D01*
X95853214Y-78098571D01*
X95777023Y-78098571D01*
X95662738Y-78060476D01*
X95205595Y-77603333D01*
X95205595Y-78098571D01*
%TO.C,C1*%
X129254285Y-72256666D02*
X129216190Y-72218571D01*
X129178095Y-72104285D01*
X129178095Y-72028095D01*
X129216190Y-71913809D01*
X129292380Y-71837619D01*
X129368571Y-71799523D01*
X129520952Y-71761428D01*
X129635238Y-71761428D01*
X129787619Y-71799523D01*
X129863809Y-71837619D01*
X129940000Y-71913809D01*
X129978095Y-72028095D01*
X129978095Y-72104285D01*
X129940000Y-72218571D01*
X129901904Y-72256666D01*
X129178095Y-73018571D02*
X129178095Y-72561428D01*
X129178095Y-72790000D02*
X129978095Y-72790000D01*
X129863809Y-72713809D01*
X129787619Y-72637619D01*
X129749523Y-72561428D01*
%TO.C,C2*%
X129254285Y-82376666D02*
X129216190Y-82338571D01*
X129178095Y-82224285D01*
X129178095Y-82148095D01*
X129216190Y-82033809D01*
X129292380Y-81957619D01*
X129368571Y-81919523D01*
X129520952Y-81881428D01*
X129635238Y-81881428D01*
X129787619Y-81919523D01*
X129863809Y-81957619D01*
X129940000Y-82033809D01*
X129978095Y-82148095D01*
X129978095Y-82224285D01*
X129940000Y-82338571D01*
X129901904Y-82376666D01*
X129901904Y-82681428D02*
X129940000Y-82719523D01*
X129978095Y-82795714D01*
X129978095Y-82986190D01*
X129940000Y-83062380D01*
X129901904Y-83100476D01*
X129825714Y-83138571D01*
X129749523Y-83138571D01*
X129635238Y-83100476D01*
X129178095Y-82643333D01*
X129178095Y-83138571D01*
%TO.C,RV1*%
X124415595Y-68103809D02*
X124796547Y-67837142D01*
X124415595Y-67646666D02*
X125215595Y-67646666D01*
X125215595Y-67951428D01*
X125177500Y-68027619D01*
X125139404Y-68065714D01*
X125063214Y-68103809D01*
X124948928Y-68103809D01*
X124872738Y-68065714D01*
X124834642Y-68027619D01*
X124796547Y-67951428D01*
X124796547Y-67646666D01*
X125215595Y-68332380D02*
X124415595Y-68599047D01*
X125215595Y-68865714D01*
X124415595Y-69551428D02*
X124415595Y-69094285D01*
X124415595Y-69322857D02*
X125215595Y-69322857D01*
X125101309Y-69246666D01*
X125025119Y-69170476D01*
X124987023Y-69094285D01*
%TO.C,RV2*%
X124415595Y-85883809D02*
X124796547Y-85617142D01*
X124415595Y-85426666D02*
X125215595Y-85426666D01*
X125215595Y-85731428D01*
X125177500Y-85807619D01*
X125139404Y-85845714D01*
X125063214Y-85883809D01*
X124948928Y-85883809D01*
X124872738Y-85845714D01*
X124834642Y-85807619D01*
X124796547Y-85731428D01*
X124796547Y-85426666D01*
X125215595Y-86112380D02*
X124415595Y-86379047D01*
X125215595Y-86645714D01*
X125139404Y-86874285D02*
X125177500Y-86912380D01*
X125215595Y-86988571D01*
X125215595Y-87179047D01*
X125177500Y-87255238D01*
X125139404Y-87293333D01*
X125063214Y-87331428D01*
X124987023Y-87331428D01*
X124872738Y-87293333D01*
X124415595Y-86836190D01*
X124415595Y-87331428D01*
%TO.C,U1*%
X125215595Y-76860476D02*
X124567976Y-76860476D01*
X124491785Y-76898571D01*
X124453690Y-76936666D01*
X124415595Y-77012857D01*
X124415595Y-77165238D01*
X124453690Y-77241428D01*
X124491785Y-77279523D01*
X124567976Y-77317619D01*
X125215595Y-77317619D01*
X124415595Y-78117619D02*
X124415595Y-77660476D01*
X124415595Y-77889047D02*
X125215595Y-77889047D01*
X125101309Y-77812857D01*
X125025119Y-77736666D01*
X124987023Y-77660476D01*
%TO.C,C3*%
X98774285Y-77256666D02*
X98736190Y-77218571D01*
X98698095Y-77104285D01*
X98698095Y-77028095D01*
X98736190Y-76913809D01*
X98812380Y-76837619D01*
X98888571Y-76799523D01*
X99040952Y-76761428D01*
X99155238Y-76761428D01*
X99307619Y-76799523D01*
X99383809Y-76837619D01*
X99460000Y-76913809D01*
X99498095Y-77028095D01*
X99498095Y-77104285D01*
X99460000Y-77218571D01*
X99421904Y-77256666D01*
X99498095Y-77523333D02*
X99498095Y-78018571D01*
X99193333Y-77751904D01*
X99193333Y-77866190D01*
X99155238Y-77942380D01*
X99117142Y-77980476D01*
X99040952Y-78018571D01*
X98850476Y-78018571D01*
X98774285Y-77980476D01*
X98736190Y-77942380D01*
X98698095Y-77866190D01*
X98698095Y-77637619D01*
X98736190Y-77561428D01*
X98774285Y-77523333D01*
%TO.C,R3*%
X110128095Y-83686666D02*
X110509047Y-83420000D01*
X110128095Y-83229523D02*
X110928095Y-83229523D01*
X110928095Y-83534285D01*
X110890000Y-83610476D01*
X110851904Y-83648571D01*
X110775714Y-83686666D01*
X110661428Y-83686666D01*
X110585238Y-83648571D01*
X110547142Y-83610476D01*
X110509047Y-83534285D01*
X110509047Y-83229523D01*
X110928095Y-83953333D02*
X110928095Y-84448571D01*
X110623333Y-84181904D01*
X110623333Y-84296190D01*
X110585238Y-84372380D01*
X110547142Y-84410476D01*
X110470952Y-84448571D01*
X110280476Y-84448571D01*
X110204285Y-84410476D01*
X110166190Y-84372380D01*
X110128095Y-84296190D01*
X110128095Y-84067619D01*
X110166190Y-83991428D01*
X110204285Y-83953333D01*
%TO.C,R5*%
X102508095Y-83686666D02*
X102889047Y-83420000D01*
X102508095Y-83229523D02*
X103308095Y-83229523D01*
X103308095Y-83534285D01*
X103270000Y-83610476D01*
X103231904Y-83648571D01*
X103155714Y-83686666D01*
X103041428Y-83686666D01*
X102965238Y-83648571D01*
X102927142Y-83610476D01*
X102889047Y-83534285D01*
X102889047Y-83229523D01*
X103308095Y-84410476D02*
X103308095Y-84029523D01*
X102927142Y-83991428D01*
X102965238Y-84029523D01*
X103003333Y-84105714D01*
X103003333Y-84296190D01*
X102965238Y-84372380D01*
X102927142Y-84410476D01*
X102850952Y-84448571D01*
X102660476Y-84448571D01*
X102584285Y-84410476D01*
X102546190Y-84372380D01*
X102508095Y-84296190D01*
X102508095Y-84105714D01*
X102546190Y-84029523D01*
X102584285Y-83991428D01*
%TO.C,R4*%
X106318095Y-83686666D02*
X106699047Y-83420000D01*
X106318095Y-83229523D02*
X107118095Y-83229523D01*
X107118095Y-83534285D01*
X107080000Y-83610476D01*
X107041904Y-83648571D01*
X106965714Y-83686666D01*
X106851428Y-83686666D01*
X106775238Y-83648571D01*
X106737142Y-83610476D01*
X106699047Y-83534285D01*
X106699047Y-83229523D01*
X106851428Y-84372380D02*
X106318095Y-84372380D01*
X107156190Y-84181904D02*
X106584761Y-83991428D01*
X106584761Y-84486666D01*
%TO.C,D1*%
X110128095Y-70529523D02*
X110928095Y-70529523D01*
X110928095Y-70720000D01*
X110890000Y-70834285D01*
X110813809Y-70910476D01*
X110737619Y-70948571D01*
X110585238Y-70986666D01*
X110470952Y-70986666D01*
X110318571Y-70948571D01*
X110242380Y-70910476D01*
X110166190Y-70834285D01*
X110128095Y-70720000D01*
X110128095Y-70529523D01*
X110128095Y-71748571D02*
X110128095Y-71291428D01*
X110128095Y-71520000D02*
X110928095Y-71520000D01*
X110813809Y-71443809D01*
X110737619Y-71367619D01*
X110699523Y-71291428D01*
%TO.C,R2*%
X102508095Y-70986666D02*
X102889047Y-70720000D01*
X102508095Y-70529523D02*
X103308095Y-70529523D01*
X103308095Y-70834285D01*
X103270000Y-70910476D01*
X103231904Y-70948571D01*
X103155714Y-70986666D01*
X103041428Y-70986666D01*
X102965238Y-70948571D01*
X102927142Y-70910476D01*
X102889047Y-70834285D01*
X102889047Y-70529523D01*
X103231904Y-71291428D02*
X103270000Y-71329523D01*
X103308095Y-71405714D01*
X103308095Y-71596190D01*
X103270000Y-71672380D01*
X103231904Y-71710476D01*
X103155714Y-71748571D01*
X103079523Y-71748571D01*
X102965238Y-71710476D01*
X102508095Y-71253333D01*
X102508095Y-71748571D01*
%TO.C,R1*%
X106318095Y-70986666D02*
X106699047Y-70720000D01*
X106318095Y-70529523D02*
X107118095Y-70529523D01*
X107118095Y-70834285D01*
X107080000Y-70910476D01*
X107041904Y-70948571D01*
X106965714Y-70986666D01*
X106851428Y-70986666D01*
X106775238Y-70948571D01*
X106737142Y-70910476D01*
X106699047Y-70834285D01*
X106699047Y-70529523D01*
X106318095Y-71748571D02*
X106318095Y-71291428D01*
X106318095Y-71520000D02*
X107118095Y-71520000D01*
X107003809Y-71443809D01*
X106927619Y-71367619D01*
X106889523Y-71291428D01*
%TD*%
M02*
