%TF.GenerationSoftware,KiCad,Pcbnew,5.1.7-a382d34a8~88~ubuntu16.04.1*%
%TF.CreationDate,2021-06-30T18:42:27+02:00*%
%TF.ProjectId,555-drum-trigger,3535352d-6472-4756-9d2d-747269676765,rev?*%
%TF.SameCoordinates,Original*%
%TF.FileFunction,Legend,Bot*%
%TF.FilePolarity,Positive*%
%FSLAX46Y46*%
G04 Gerber Fmt 4.6, Leading zero omitted, Abs format (unit mm)*
G04 Created by KiCad (PCBNEW 5.1.7-a382d34a8~88~ubuntu16.04.1) date 2021-06-30 18:42:27*
%MOMM*%
%LPD*%
G01*
G04 APERTURE LIST*
%ADD10C,0.010000*%
G04 APERTURE END LIST*
D10*
%TO.C,G\u002A\u002A\u002A*%
G36*
X133531428Y-79243968D02*
G01*
X130709206Y-79243968D01*
X130707468Y-83487381D01*
X130705731Y-87730794D01*
X128039975Y-81501746D01*
X126124782Y-81501746D01*
X125034495Y-84051826D01*
X124843768Y-84498003D01*
X124656587Y-84936048D01*
X124476305Y-85358103D01*
X124306276Y-85756311D01*
X124149852Y-86122814D01*
X124010387Y-86449753D01*
X123891235Y-86729271D01*
X123795749Y-86953511D01*
X123727282Y-87114614D01*
X123708215Y-87159609D01*
X123472222Y-87717313D01*
X123461957Y-83480641D01*
X123451693Y-79243968D01*
X122039502Y-79243968D01*
X121645375Y-79244604D01*
X121325499Y-79246660D01*
X121073501Y-79250360D01*
X120883006Y-79255930D01*
X120747639Y-79263594D01*
X120661026Y-79273576D01*
X120616792Y-79286100D01*
X120608135Y-79294365D01*
X120605960Y-79339912D01*
X120603996Y-79461527D01*
X120602250Y-79654644D01*
X120600731Y-79914695D01*
X120599444Y-80237115D01*
X120598397Y-80617337D01*
X120597596Y-81050795D01*
X120597048Y-81532921D01*
X120596761Y-82059149D01*
X120596741Y-82624913D01*
X120596995Y-83225646D01*
X120597530Y-83856782D01*
X120598352Y-84513754D01*
X120599321Y-85110159D01*
X120609682Y-90875556D01*
X124432986Y-90875556D01*
X125746731Y-87780763D01*
X126006605Y-87170132D01*
X126239912Y-86625169D01*
X126446179Y-86146941D01*
X126624931Y-85736516D01*
X126775698Y-85394963D01*
X126898005Y-85123349D01*
X126991379Y-84922743D01*
X127055348Y-84794212D01*
X127089439Y-84738824D01*
X127094544Y-84737293D01*
X127115300Y-84781509D01*
X127165257Y-84894297D01*
X127241999Y-85070052D01*
X127343110Y-85303168D01*
X127466172Y-85588041D01*
X127608770Y-85919065D01*
X127768489Y-86290633D01*
X127942910Y-86697142D01*
X128129619Y-87132985D01*
X128326199Y-87592557D01*
X128428545Y-87832086D01*
X129728479Y-90875556D01*
X131629954Y-90886030D01*
X133531428Y-90896504D01*
X133531428Y-79243968D01*
G37*
X133531428Y-79243968D02*
X130709206Y-79243968D01*
X130707468Y-83487381D01*
X130705731Y-87730794D01*
X128039975Y-81501746D01*
X126124782Y-81501746D01*
X125034495Y-84051826D01*
X124843768Y-84498003D01*
X124656587Y-84936048D01*
X124476305Y-85358103D01*
X124306276Y-85756311D01*
X124149852Y-86122814D01*
X124010387Y-86449753D01*
X123891235Y-86729271D01*
X123795749Y-86953511D01*
X123727282Y-87114614D01*
X123708215Y-87159609D01*
X123472222Y-87717313D01*
X123461957Y-83480641D01*
X123451693Y-79243968D01*
X122039502Y-79243968D01*
X121645375Y-79244604D01*
X121325499Y-79246660D01*
X121073501Y-79250360D01*
X120883006Y-79255930D01*
X120747639Y-79263594D01*
X120661026Y-79273576D01*
X120616792Y-79286100D01*
X120608135Y-79294365D01*
X120605960Y-79339912D01*
X120603996Y-79461527D01*
X120602250Y-79654644D01*
X120600731Y-79914695D01*
X120599444Y-80237115D01*
X120598397Y-80617337D01*
X120597596Y-81050795D01*
X120597048Y-81532921D01*
X120596761Y-82059149D01*
X120596741Y-82624913D01*
X120596995Y-83225646D01*
X120597530Y-83856782D01*
X120598352Y-84513754D01*
X120599321Y-85110159D01*
X120609682Y-90875556D01*
X124432986Y-90875556D01*
X125746731Y-87780763D01*
X126006605Y-87170132D01*
X126239912Y-86625169D01*
X126446179Y-86146941D01*
X126624931Y-85736516D01*
X126775698Y-85394963D01*
X126898005Y-85123349D01*
X126991379Y-84922743D01*
X127055348Y-84794212D01*
X127089439Y-84738824D01*
X127094544Y-84737293D01*
X127115300Y-84781509D01*
X127165257Y-84894297D01*
X127241999Y-85070052D01*
X127343110Y-85303168D01*
X127466172Y-85588041D01*
X127608770Y-85919065D01*
X127768489Y-86290633D01*
X127942910Y-86697142D01*
X128129619Y-87132985D01*
X128326199Y-87592557D01*
X128428545Y-87832086D01*
X129728479Y-90875556D01*
X131629954Y-90886030D01*
X133531428Y-90896504D01*
X133531428Y-79243968D01*
G36*
X99211190Y-90895617D02*
G01*
X99850424Y-90894803D01*
X100415697Y-90892118D01*
X100913669Y-90887113D01*
X101351003Y-90879340D01*
X101734360Y-90868348D01*
X102070400Y-90853690D01*
X102365785Y-90834917D01*
X102627176Y-90811579D01*
X102861234Y-90783229D01*
X103074621Y-90749416D01*
X103273998Y-90709693D01*
X103466025Y-90663610D01*
X103657365Y-90610719D01*
X103721422Y-90591715D01*
X104202091Y-90412289D01*
X104621986Y-90182241D01*
X104979824Y-89902805D01*
X105274324Y-89575211D01*
X105504204Y-89200692D01*
X105668182Y-88780481D01*
X105691040Y-88698413D01*
X105761346Y-88341825D01*
X105799526Y-87947608D01*
X105805609Y-87541095D01*
X105779621Y-87147624D01*
X105721590Y-86792529D01*
X105688842Y-86664947D01*
X105532703Y-86256688D01*
X105313657Y-85875556D01*
X105042746Y-85538278D01*
X104794828Y-85310271D01*
X104642168Y-85203630D01*
X104437105Y-85080446D01*
X104202494Y-84953123D01*
X103961191Y-84834069D01*
X103736825Y-84735999D01*
X103636031Y-84695587D01*
X103756984Y-84649266D01*
X104128535Y-84466349D01*
X104485707Y-84210447D01*
X104819873Y-83889006D01*
X105122405Y-83509471D01*
X105185236Y-83416826D01*
X105229529Y-83341322D01*
X105303609Y-83205403D01*
X105403484Y-83016970D01*
X105525164Y-82783922D01*
X105664659Y-82514158D01*
X105817976Y-82215577D01*
X105981126Y-81896078D01*
X106150116Y-81563563D01*
X106320958Y-81225928D01*
X106489659Y-80891075D01*
X106652229Y-80566902D01*
X106804676Y-80261309D01*
X106943011Y-79982196D01*
X107063242Y-79737461D01*
X107161378Y-79535004D01*
X107233429Y-79382725D01*
X107275404Y-79288522D01*
X107284761Y-79261077D01*
X107245875Y-79257382D01*
X107134935Y-79254461D01*
X106960517Y-79252356D01*
X106731201Y-79251106D01*
X106455562Y-79250753D01*
X106142178Y-79251335D01*
X105799626Y-79252894D01*
X105688308Y-79253585D01*
X104091854Y-79264127D01*
X103359974Y-80758433D01*
X103139443Y-81207347D01*
X102949733Y-81589989D01*
X102787146Y-81912961D01*
X102647983Y-82182862D01*
X102528546Y-82406294D01*
X102425136Y-82589858D01*
X102334055Y-82740153D01*
X102251603Y-82863782D01*
X102174082Y-82967344D01*
X102097793Y-83057440D01*
X102033143Y-83126329D01*
X101853364Y-83292444D01*
X101669353Y-83420447D01*
X101467607Y-83514580D01*
X101234623Y-83579083D01*
X100956897Y-83618198D01*
X100620925Y-83636166D01*
X100402164Y-83638572D01*
X99785714Y-83638572D01*
X99785714Y-79243968D01*
X96802222Y-79243968D01*
X96802222Y-85727633D01*
X99784713Y-85727633D01*
X100742753Y-85744911D01*
X101068781Y-85751874D01*
X101325681Y-85760196D01*
X101524959Y-85770743D01*
X101678123Y-85784379D01*
X101796676Y-85801970D01*
X101892126Y-85824380D01*
X101922539Y-85833631D01*
X102214448Y-85959847D01*
X102445784Y-86132550D01*
X102618318Y-86354810D01*
X102733818Y-86629694D01*
X102794054Y-86960273D01*
X102800795Y-87349616D01*
X102800471Y-87356478D01*
X102787302Y-87557216D01*
X102766135Y-87706501D01*
X102730359Y-87833504D01*
X102673362Y-87967397D01*
X102652025Y-88011465D01*
X102559669Y-88172486D01*
X102457762Y-88308821D01*
X102386144Y-88378642D01*
X102200684Y-88492373D01*
X101971610Y-88581212D01*
X101692049Y-88646337D01*
X101355132Y-88688927D01*
X100953987Y-88710162D01*
X100481744Y-88711219D01*
X100450952Y-88710666D01*
X99805873Y-88698413D01*
X99784713Y-85727633D01*
X96802222Y-85727633D01*
X96802222Y-90895714D01*
X99211190Y-90895617D01*
G37*
X99211190Y-90895617D02*
X99850424Y-90894803D01*
X100415697Y-90892118D01*
X100913669Y-90887113D01*
X101351003Y-90879340D01*
X101734360Y-90868348D01*
X102070400Y-90853690D01*
X102365785Y-90834917D01*
X102627176Y-90811579D01*
X102861234Y-90783229D01*
X103074621Y-90749416D01*
X103273998Y-90709693D01*
X103466025Y-90663610D01*
X103657365Y-90610719D01*
X103721422Y-90591715D01*
X104202091Y-90412289D01*
X104621986Y-90182241D01*
X104979824Y-89902805D01*
X105274324Y-89575211D01*
X105504204Y-89200692D01*
X105668182Y-88780481D01*
X105691040Y-88698413D01*
X105761346Y-88341825D01*
X105799526Y-87947608D01*
X105805609Y-87541095D01*
X105779621Y-87147624D01*
X105721590Y-86792529D01*
X105688842Y-86664947D01*
X105532703Y-86256688D01*
X105313657Y-85875556D01*
X105042746Y-85538278D01*
X104794828Y-85310271D01*
X104642168Y-85203630D01*
X104437105Y-85080446D01*
X104202494Y-84953123D01*
X103961191Y-84834069D01*
X103736825Y-84735999D01*
X103636031Y-84695587D01*
X103756984Y-84649266D01*
X104128535Y-84466349D01*
X104485707Y-84210447D01*
X104819873Y-83889006D01*
X105122405Y-83509471D01*
X105185236Y-83416826D01*
X105229529Y-83341322D01*
X105303609Y-83205403D01*
X105403484Y-83016970D01*
X105525164Y-82783922D01*
X105664659Y-82514158D01*
X105817976Y-82215577D01*
X105981126Y-81896078D01*
X106150116Y-81563563D01*
X106320958Y-81225928D01*
X106489659Y-80891075D01*
X106652229Y-80566902D01*
X106804676Y-80261309D01*
X106943011Y-79982196D01*
X107063242Y-79737461D01*
X107161378Y-79535004D01*
X107233429Y-79382725D01*
X107275404Y-79288522D01*
X107284761Y-79261077D01*
X107245875Y-79257382D01*
X107134935Y-79254461D01*
X106960517Y-79252356D01*
X106731201Y-79251106D01*
X106455562Y-79250753D01*
X106142178Y-79251335D01*
X105799626Y-79252894D01*
X105688308Y-79253585D01*
X104091854Y-79264127D01*
X103359974Y-80758433D01*
X103139443Y-81207347D01*
X102949733Y-81589989D01*
X102787146Y-81912961D01*
X102647983Y-82182862D01*
X102528546Y-82406294D01*
X102425136Y-82589858D01*
X102334055Y-82740153D01*
X102251603Y-82863782D01*
X102174082Y-82967344D01*
X102097793Y-83057440D01*
X102033143Y-83126329D01*
X101853364Y-83292444D01*
X101669353Y-83420447D01*
X101467607Y-83514580D01*
X101234623Y-83579083D01*
X100956897Y-83618198D01*
X100620925Y-83636166D01*
X100402164Y-83638572D01*
X99785714Y-83638572D01*
X99785714Y-79243968D01*
X96802222Y-79243968D01*
X96802222Y-85727633D01*
X99784713Y-85727633D01*
X100742753Y-85744911D01*
X101068781Y-85751874D01*
X101325681Y-85760196D01*
X101524959Y-85770743D01*
X101678123Y-85784379D01*
X101796676Y-85801970D01*
X101892126Y-85824380D01*
X101922539Y-85833631D01*
X102214448Y-85959847D01*
X102445784Y-86132550D01*
X102618318Y-86354810D01*
X102733818Y-86629694D01*
X102794054Y-86960273D01*
X102800795Y-87349616D01*
X102800471Y-87356478D01*
X102787302Y-87557216D01*
X102766135Y-87706501D01*
X102730359Y-87833504D01*
X102673362Y-87967397D01*
X102652025Y-88011465D01*
X102559669Y-88172486D01*
X102457762Y-88308821D01*
X102386144Y-88378642D01*
X102200684Y-88492373D01*
X101971610Y-88581212D01*
X101692049Y-88646337D01*
X101355132Y-88688927D01*
X100953987Y-88710162D01*
X100481744Y-88711219D01*
X100450952Y-88710666D01*
X99805873Y-88698413D01*
X99784713Y-85727633D01*
X96802222Y-85727633D01*
X96802222Y-90895714D01*
X99211190Y-90895617D01*
G36*
X86067698Y-90894989D02*
G01*
X86850928Y-90892101D01*
X87559557Y-90883636D01*
X88199472Y-90868908D01*
X88776559Y-90847227D01*
X89296705Y-90817907D01*
X89765796Y-90780259D01*
X90189718Y-90733595D01*
X90574357Y-90677226D01*
X90925600Y-90610465D01*
X91249333Y-90532623D01*
X91551442Y-90443013D01*
X91837814Y-90340946D01*
X92114334Y-90225734D01*
X92224761Y-90175224D01*
X92723228Y-89901527D01*
X93202971Y-89560426D01*
X93648847Y-89165073D01*
X94045718Y-88728621D01*
X94320225Y-88354967D01*
X94619793Y-87835464D01*
X94855317Y-87280735D01*
X95028045Y-86686143D01*
X95139225Y-86047051D01*
X95190106Y-85358823D01*
X95193896Y-85110159D01*
X95181224Y-84562991D01*
X95139675Y-84072198D01*
X95066158Y-83617757D01*
X94957586Y-83179643D01*
X94840691Y-82819809D01*
X94600254Y-82264277D01*
X94289795Y-81741020D01*
X93915557Y-81256128D01*
X93483781Y-80815691D01*
X93000712Y-80425798D01*
X92472590Y-80092538D01*
X91905659Y-79822001D01*
X91679620Y-79736299D01*
X91406019Y-79647125D01*
X91117631Y-79568481D01*
X90808464Y-79499839D01*
X90472527Y-79440666D01*
X90103828Y-79390432D01*
X89696378Y-79348607D01*
X89244184Y-79314659D01*
X88741256Y-79288059D01*
X88181602Y-79268274D01*
X87559233Y-79254775D01*
X86868156Y-79247031D01*
X86128174Y-79244516D01*
X84263492Y-79243968D01*
X84263492Y-81533905D01*
X87287301Y-81533905D01*
X88285158Y-81551878D01*
X88602903Y-81558166D01*
X88853778Y-81565030D01*
X89051546Y-81573690D01*
X89209969Y-81585371D01*
X89342810Y-81601293D01*
X89463831Y-81622680D01*
X89586795Y-81650752D01*
X89686190Y-81676301D01*
X90192928Y-81845440D01*
X90642410Y-82069795D01*
X91033574Y-82348545D01*
X91365356Y-82680870D01*
X91636692Y-83065951D01*
X91741512Y-83261796D01*
X91911561Y-83691876D01*
X92029376Y-84166730D01*
X92095176Y-84670609D01*
X92109180Y-85187762D01*
X92071608Y-85702440D01*
X91982681Y-86198894D01*
X91842617Y-86661374D01*
X91689303Y-87005080D01*
X91524322Y-87261599D01*
X91286425Y-87541753D01*
X91197991Y-87633373D01*
X91023942Y-87802766D01*
X90875454Y-87929037D01*
X90726713Y-88031214D01*
X90551909Y-88128325D01*
X90472277Y-88168351D01*
X90253309Y-88266079D01*
X90001773Y-88362721D01*
X89761269Y-88441939D01*
X89686190Y-88462939D01*
X89552474Y-88496528D01*
X89430222Y-88522597D01*
X89305635Y-88542376D01*
X89164915Y-88557091D01*
X88994263Y-88567971D01*
X88779882Y-88576244D01*
X88507973Y-88583138D01*
X88285158Y-88587627D01*
X87287301Y-88606635D01*
X87287301Y-81533905D01*
X84263492Y-81533905D01*
X84263492Y-90895714D01*
X86067698Y-90894989D01*
G37*
X86067698Y-90894989D02*
X86850928Y-90892101D01*
X87559557Y-90883636D01*
X88199472Y-90868908D01*
X88776559Y-90847227D01*
X89296705Y-90817907D01*
X89765796Y-90780259D01*
X90189718Y-90733595D01*
X90574357Y-90677226D01*
X90925600Y-90610465D01*
X91249333Y-90532623D01*
X91551442Y-90443013D01*
X91837814Y-90340946D01*
X92114334Y-90225734D01*
X92224761Y-90175224D01*
X92723228Y-89901527D01*
X93202971Y-89560426D01*
X93648847Y-89165073D01*
X94045718Y-88728621D01*
X94320225Y-88354967D01*
X94619793Y-87835464D01*
X94855317Y-87280735D01*
X95028045Y-86686143D01*
X95139225Y-86047051D01*
X95190106Y-85358823D01*
X95193896Y-85110159D01*
X95181224Y-84562991D01*
X95139675Y-84072198D01*
X95066158Y-83617757D01*
X94957586Y-83179643D01*
X94840691Y-82819809D01*
X94600254Y-82264277D01*
X94289795Y-81741020D01*
X93915557Y-81256128D01*
X93483781Y-80815691D01*
X93000712Y-80425798D01*
X92472590Y-80092538D01*
X91905659Y-79822001D01*
X91679620Y-79736299D01*
X91406019Y-79647125D01*
X91117631Y-79568481D01*
X90808464Y-79499839D01*
X90472527Y-79440666D01*
X90103828Y-79390432D01*
X89696378Y-79348607D01*
X89244184Y-79314659D01*
X88741256Y-79288059D01*
X88181602Y-79268274D01*
X87559233Y-79254775D01*
X86868156Y-79247031D01*
X86128174Y-79244516D01*
X84263492Y-79243968D01*
X84263492Y-81533905D01*
X87287301Y-81533905D01*
X88285158Y-81551878D01*
X88602903Y-81558166D01*
X88853778Y-81565030D01*
X89051546Y-81573690D01*
X89209969Y-81585371D01*
X89342810Y-81601293D01*
X89463831Y-81622680D01*
X89586795Y-81650752D01*
X89686190Y-81676301D01*
X90192928Y-81845440D01*
X90642410Y-82069795D01*
X91033574Y-82348545D01*
X91365356Y-82680870D01*
X91636692Y-83065951D01*
X91741512Y-83261796D01*
X91911561Y-83691876D01*
X92029376Y-84166730D01*
X92095176Y-84670609D01*
X92109180Y-85187762D01*
X92071608Y-85702440D01*
X91982681Y-86198894D01*
X91842617Y-86661374D01*
X91689303Y-87005080D01*
X91524322Y-87261599D01*
X91286425Y-87541753D01*
X91197991Y-87633373D01*
X91023942Y-87802766D01*
X90875454Y-87929037D01*
X90726713Y-88031214D01*
X90551909Y-88128325D01*
X90472277Y-88168351D01*
X90253309Y-88266079D01*
X90001773Y-88362721D01*
X89761269Y-88441939D01*
X89686190Y-88462939D01*
X89552474Y-88496528D01*
X89430222Y-88522597D01*
X89305635Y-88542376D01*
X89164915Y-88557091D01*
X88994263Y-88567971D01*
X88779882Y-88576244D01*
X88507973Y-88583138D01*
X88285158Y-88587627D01*
X87287301Y-88606635D01*
X87287301Y-81533905D01*
X84263492Y-81533905D01*
X84263492Y-90895714D01*
X86067698Y-90894989D01*
G36*
X111357524Y-87257064D02*
G01*
X111357869Y-86559087D01*
X111358824Y-85936610D01*
X111360694Y-85384500D01*
X111363784Y-84897621D01*
X111368397Y-84470841D01*
X111374839Y-84099024D01*
X111383413Y-83777037D01*
X111394426Y-83499746D01*
X111408181Y-83262016D01*
X111424982Y-83058714D01*
X111445135Y-82884705D01*
X111468944Y-82734856D01*
X111496713Y-82604032D01*
X111528747Y-82487099D01*
X111565352Y-82378922D01*
X111606830Y-82274369D01*
X111653487Y-82168305D01*
X111660297Y-82153377D01*
X111824375Y-81868050D01*
X112031746Y-81640950D01*
X112288606Y-81468077D01*
X112601150Y-81345432D01*
X112975573Y-81269017D01*
X113043397Y-81260613D01*
X113457866Y-81240942D01*
X113846013Y-81277027D01*
X114197523Y-81366375D01*
X114502082Y-81506490D01*
X114718569Y-81665677D01*
X114919181Y-81887957D01*
X115079799Y-82154953D01*
X115203647Y-82474720D01*
X115293951Y-82855317D01*
X115347032Y-83235397D01*
X115353623Y-83339522D01*
X115359798Y-83518953D01*
X115365505Y-83768362D01*
X115370687Y-84082421D01*
X115375293Y-84455801D01*
X115379266Y-84883175D01*
X115382554Y-85359214D01*
X115385102Y-85878590D01*
X115386856Y-86435976D01*
X115387762Y-87026042D01*
X115387872Y-87257064D01*
X115388571Y-90895714D01*
X118375021Y-90895714D01*
X118362854Y-86894207D01*
X118360839Y-86237875D01*
X118358942Y-85656993D01*
X118357043Y-85146376D01*
X118355018Y-84700837D01*
X118352747Y-84315193D01*
X118350106Y-83984257D01*
X118346975Y-83702844D01*
X118343230Y-83465771D01*
X118338751Y-83267850D01*
X118333415Y-83103897D01*
X118327100Y-82968728D01*
X118319685Y-82857156D01*
X118311046Y-82763997D01*
X118301063Y-82684065D01*
X118289614Y-82612176D01*
X118276575Y-82543143D01*
X118261826Y-82471783D01*
X118258450Y-82455779D01*
X118102492Y-81860180D01*
X117898061Y-81327121D01*
X117642832Y-80854359D01*
X117334481Y-80439650D01*
X116970684Y-80080748D01*
X116549115Y-79775411D01*
X116067451Y-79521392D01*
X115523367Y-79316449D01*
X114914538Y-79158337D01*
X114824126Y-79139835D01*
X114663439Y-79116855D01*
X114438222Y-79096971D01*
X114164532Y-79080521D01*
X113858428Y-79067839D01*
X113535966Y-79059263D01*
X113213205Y-79055128D01*
X112906202Y-79055770D01*
X112631014Y-79061525D01*
X112403700Y-79072729D01*
X112263968Y-79086262D01*
X111797427Y-79167883D01*
X111337099Y-79283434D01*
X110904260Y-79426365D01*
X110520186Y-79590124D01*
X110365507Y-79670778D01*
X109925450Y-79958816D01*
X109541269Y-80300342D01*
X109211587Y-80697400D01*
X108935024Y-81152033D01*
X108710203Y-81666286D01*
X108535744Y-82242201D01*
X108486946Y-82455779D01*
X108471816Y-82528306D01*
X108458424Y-82597400D01*
X108446646Y-82668246D01*
X108436360Y-82746029D01*
X108427445Y-82835934D01*
X108419779Y-82943147D01*
X108413240Y-83072853D01*
X108407706Y-83230236D01*
X108403054Y-83420483D01*
X108399164Y-83648778D01*
X108395912Y-83920306D01*
X108393177Y-84240253D01*
X108390837Y-84613803D01*
X108388770Y-85046142D01*
X108386854Y-85542455D01*
X108384967Y-86107928D01*
X108382987Y-86747745D01*
X108382542Y-86894207D01*
X108370375Y-90895714D01*
X111356825Y-90895714D01*
X111357524Y-87257064D01*
G37*
X111357524Y-87257064D02*
X111357869Y-86559087D01*
X111358824Y-85936610D01*
X111360694Y-85384500D01*
X111363784Y-84897621D01*
X111368397Y-84470841D01*
X111374839Y-84099024D01*
X111383413Y-83777037D01*
X111394426Y-83499746D01*
X111408181Y-83262016D01*
X111424982Y-83058714D01*
X111445135Y-82884705D01*
X111468944Y-82734856D01*
X111496713Y-82604032D01*
X111528747Y-82487099D01*
X111565352Y-82378922D01*
X111606830Y-82274369D01*
X111653487Y-82168305D01*
X111660297Y-82153377D01*
X111824375Y-81868050D01*
X112031746Y-81640950D01*
X112288606Y-81468077D01*
X112601150Y-81345432D01*
X112975573Y-81269017D01*
X113043397Y-81260613D01*
X113457866Y-81240942D01*
X113846013Y-81277027D01*
X114197523Y-81366375D01*
X114502082Y-81506490D01*
X114718569Y-81665677D01*
X114919181Y-81887957D01*
X115079799Y-82154953D01*
X115203647Y-82474720D01*
X115293951Y-82855317D01*
X115347032Y-83235397D01*
X115353623Y-83339522D01*
X115359798Y-83518953D01*
X115365505Y-83768362D01*
X115370687Y-84082421D01*
X115375293Y-84455801D01*
X115379266Y-84883175D01*
X115382554Y-85359214D01*
X115385102Y-85878590D01*
X115386856Y-86435976D01*
X115387762Y-87026042D01*
X115387872Y-87257064D01*
X115388571Y-90895714D01*
X118375021Y-90895714D01*
X118362854Y-86894207D01*
X118360839Y-86237875D01*
X118358942Y-85656993D01*
X118357043Y-85146376D01*
X118355018Y-84700837D01*
X118352747Y-84315193D01*
X118350106Y-83984257D01*
X118346975Y-83702844D01*
X118343230Y-83465771D01*
X118338751Y-83267850D01*
X118333415Y-83103897D01*
X118327100Y-82968728D01*
X118319685Y-82857156D01*
X118311046Y-82763997D01*
X118301063Y-82684065D01*
X118289614Y-82612176D01*
X118276575Y-82543143D01*
X118261826Y-82471783D01*
X118258450Y-82455779D01*
X118102492Y-81860180D01*
X117898061Y-81327121D01*
X117642832Y-80854359D01*
X117334481Y-80439650D01*
X116970684Y-80080748D01*
X116549115Y-79775411D01*
X116067451Y-79521392D01*
X115523367Y-79316449D01*
X114914538Y-79158337D01*
X114824126Y-79139835D01*
X114663439Y-79116855D01*
X114438222Y-79096971D01*
X114164532Y-79080521D01*
X113858428Y-79067839D01*
X113535966Y-79059263D01*
X113213205Y-79055128D01*
X112906202Y-79055770D01*
X112631014Y-79061525D01*
X112403700Y-79072729D01*
X112263968Y-79086262D01*
X111797427Y-79167883D01*
X111337099Y-79283434D01*
X110904260Y-79426365D01*
X110520186Y-79590124D01*
X110365507Y-79670778D01*
X109925450Y-79958816D01*
X109541269Y-80300342D01*
X109211587Y-80697400D01*
X108935024Y-81152033D01*
X108710203Y-81666286D01*
X108535744Y-82242201D01*
X108486946Y-82455779D01*
X108471816Y-82528306D01*
X108458424Y-82597400D01*
X108446646Y-82668246D01*
X108436360Y-82746029D01*
X108427445Y-82835934D01*
X108419779Y-82943147D01*
X108413240Y-83072853D01*
X108407706Y-83230236D01*
X108403054Y-83420483D01*
X108399164Y-83648778D01*
X108395912Y-83920306D01*
X108393177Y-84240253D01*
X108390837Y-84613803D01*
X108388770Y-85046142D01*
X108386854Y-85542455D01*
X108384967Y-86107928D01*
X108382987Y-86747745D01*
X108382542Y-86894207D01*
X108370375Y-90895714D01*
X111356825Y-90895714D01*
X111357524Y-87257064D01*
G36*
X117888253Y-63963651D02*
G01*
X114138730Y-63963651D01*
X114138730Y-78477937D01*
X117888253Y-78477937D01*
X117888253Y-63963651D01*
G37*
X117888253Y-63963651D02*
X114138730Y-63963651D01*
X114138730Y-78477937D01*
X117888253Y-78477937D01*
X117888253Y-63963651D01*
G36*
X102738968Y-78467535D02*
G01*
X103381310Y-78464893D01*
X103948956Y-78462290D01*
X104447844Y-78459409D01*
X104883912Y-78455932D01*
X105263099Y-78451542D01*
X105591342Y-78445923D01*
X105874580Y-78438757D01*
X106118751Y-78429728D01*
X106329793Y-78418517D01*
X106513644Y-78404809D01*
X106676242Y-78388286D01*
X106823526Y-78368631D01*
X106961433Y-78345527D01*
X107095902Y-78318657D01*
X107232871Y-78287703D01*
X107378278Y-78252350D01*
X107538061Y-78212280D01*
X107543011Y-78211033D01*
X108120313Y-78034904D01*
X108631270Y-77813300D01*
X109076878Y-77545102D01*
X109458133Y-77229189D01*
X109776032Y-76864440D01*
X110031568Y-76449735D01*
X110225740Y-75983953D01*
X110359542Y-75465975D01*
X110428266Y-74964659D01*
X110445188Y-74576687D01*
X110433250Y-74164727D01*
X110394659Y-73759675D01*
X110331627Y-73392430D01*
X110309022Y-73297143D01*
X110143450Y-72804337D01*
X109909927Y-72354299D01*
X109609632Y-71948289D01*
X109243745Y-71587565D01*
X108813445Y-71273387D01*
X108319911Y-71007015D01*
X108060974Y-70896535D01*
X107688138Y-70749687D01*
X107859386Y-70699089D01*
X107981712Y-70654779D01*
X108141299Y-70586158D01*
X108304690Y-70507656D01*
X108312857Y-70503475D01*
X108514778Y-70376531D01*
X108743408Y-70193988D01*
X108984693Y-69969821D01*
X109224580Y-69718006D01*
X109449017Y-69452518D01*
X109643951Y-69187332D01*
X109659141Y-69164603D01*
X109727969Y-69051112D01*
X109828856Y-68870874D01*
X109958766Y-68629743D01*
X110114662Y-68333568D01*
X110293505Y-67988201D01*
X110492261Y-67599493D01*
X110707890Y-67173295D01*
X110937357Y-66715458D01*
X111098506Y-66391549D01*
X111301148Y-65982772D01*
X111492862Y-65595501D01*
X111670691Y-65235740D01*
X111831681Y-64909494D01*
X111972877Y-64622765D01*
X112091323Y-64381559D01*
X112184065Y-64191879D01*
X112248148Y-64059729D01*
X112280617Y-63991114D01*
X112284126Y-63982580D01*
X112245090Y-63978850D01*
X112133105Y-63975364D01*
X111955857Y-63972194D01*
X111721032Y-63969415D01*
X111436316Y-63967098D01*
X111109395Y-63965318D01*
X110747955Y-63964148D01*
X110359682Y-63963661D01*
X110295653Y-63963651D01*
X108307179Y-63963651D01*
X107324606Y-65960326D01*
X107134336Y-66345146D01*
X106948850Y-66716818D01*
X106772229Y-67067402D01*
X106608549Y-67388955D01*
X106461890Y-67673535D01*
X106336331Y-67913200D01*
X106235949Y-68100008D01*
X106164824Y-68226016D01*
X106142477Y-68262260D01*
X105900880Y-68599485D01*
X105658709Y-68866645D01*
X105403495Y-69073430D01*
X105122773Y-69229527D01*
X104804076Y-69344627D01*
X104720732Y-69367181D01*
X104586267Y-69397695D01*
X104447289Y-69419602D01*
X104287049Y-69434172D01*
X104088798Y-69442673D01*
X103835786Y-69446375D01*
X103669899Y-69446826D01*
X102930476Y-69446826D01*
X102930476Y-63963651D01*
X99180952Y-63963651D01*
X99180952Y-72067460D01*
X102930476Y-72067460D01*
X103975183Y-72067460D01*
X104360950Y-72069251D01*
X104675608Y-72074901D01*
X104928609Y-72084829D01*
X105129405Y-72099454D01*
X105287449Y-72119192D01*
X105335897Y-72127669D01*
X105704786Y-72225674D01*
X106009077Y-72368978D01*
X106253517Y-72561733D01*
X106442853Y-72808086D01*
X106581832Y-73112189D01*
X106625510Y-73255087D01*
X106653392Y-73412138D01*
X106671604Y-73623979D01*
X106679948Y-73865324D01*
X106678228Y-74110888D01*
X106666247Y-74335385D01*
X106643809Y-74513527D01*
X106635597Y-74551777D01*
X106517806Y-74886881D01*
X106342992Y-75167393D01*
X106113245Y-75390525D01*
X105913392Y-75514895D01*
X105781936Y-75577340D01*
X105652426Y-75627768D01*
X105513980Y-75667659D01*
X105355714Y-75698492D01*
X105166743Y-75721745D01*
X104936185Y-75738897D01*
X104653155Y-75751428D01*
X104306770Y-75760816D01*
X104069444Y-75765459D01*
X102930476Y-75785689D01*
X102930476Y-72067460D01*
X99180952Y-72067460D01*
X99180952Y-78481976D01*
X102738968Y-78467535D01*
G37*
X102738968Y-78467535D02*
X103381310Y-78464893D01*
X103948956Y-78462290D01*
X104447844Y-78459409D01*
X104883912Y-78455932D01*
X105263099Y-78451542D01*
X105591342Y-78445923D01*
X105874580Y-78438757D01*
X106118751Y-78429728D01*
X106329793Y-78418517D01*
X106513644Y-78404809D01*
X106676242Y-78388286D01*
X106823526Y-78368631D01*
X106961433Y-78345527D01*
X107095902Y-78318657D01*
X107232871Y-78287703D01*
X107378278Y-78252350D01*
X107538061Y-78212280D01*
X107543011Y-78211033D01*
X108120313Y-78034904D01*
X108631270Y-77813300D01*
X109076878Y-77545102D01*
X109458133Y-77229189D01*
X109776032Y-76864440D01*
X110031568Y-76449735D01*
X110225740Y-75983953D01*
X110359542Y-75465975D01*
X110428266Y-74964659D01*
X110445188Y-74576687D01*
X110433250Y-74164727D01*
X110394659Y-73759675D01*
X110331627Y-73392430D01*
X110309022Y-73297143D01*
X110143450Y-72804337D01*
X109909927Y-72354299D01*
X109609632Y-71948289D01*
X109243745Y-71587565D01*
X108813445Y-71273387D01*
X108319911Y-71007015D01*
X108060974Y-70896535D01*
X107688138Y-70749687D01*
X107859386Y-70699089D01*
X107981712Y-70654779D01*
X108141299Y-70586158D01*
X108304690Y-70507656D01*
X108312857Y-70503475D01*
X108514778Y-70376531D01*
X108743408Y-70193988D01*
X108984693Y-69969821D01*
X109224580Y-69718006D01*
X109449017Y-69452518D01*
X109643951Y-69187332D01*
X109659141Y-69164603D01*
X109727969Y-69051112D01*
X109828856Y-68870874D01*
X109958766Y-68629743D01*
X110114662Y-68333568D01*
X110293505Y-67988201D01*
X110492261Y-67599493D01*
X110707890Y-67173295D01*
X110937357Y-66715458D01*
X111098506Y-66391549D01*
X111301148Y-65982772D01*
X111492862Y-65595501D01*
X111670691Y-65235740D01*
X111831681Y-64909494D01*
X111972877Y-64622765D01*
X112091323Y-64381559D01*
X112184065Y-64191879D01*
X112248148Y-64059729D01*
X112280617Y-63991114D01*
X112284126Y-63982580D01*
X112245090Y-63978850D01*
X112133105Y-63975364D01*
X111955857Y-63972194D01*
X111721032Y-63969415D01*
X111436316Y-63967098D01*
X111109395Y-63965318D01*
X110747955Y-63964148D01*
X110359682Y-63963661D01*
X110295653Y-63963651D01*
X108307179Y-63963651D01*
X107324606Y-65960326D01*
X107134336Y-66345146D01*
X106948850Y-66716818D01*
X106772229Y-67067402D01*
X106608549Y-67388955D01*
X106461890Y-67673535D01*
X106336331Y-67913200D01*
X106235949Y-68100008D01*
X106164824Y-68226016D01*
X106142477Y-68262260D01*
X105900880Y-68599485D01*
X105658709Y-68866645D01*
X105403495Y-69073430D01*
X105122773Y-69229527D01*
X104804076Y-69344627D01*
X104720732Y-69367181D01*
X104586267Y-69397695D01*
X104447289Y-69419602D01*
X104287049Y-69434172D01*
X104088798Y-69442673D01*
X103835786Y-69446375D01*
X103669899Y-69446826D01*
X102930476Y-69446826D01*
X102930476Y-63963651D01*
X99180952Y-63963651D01*
X99180952Y-72067460D01*
X102930476Y-72067460D01*
X103975183Y-72067460D01*
X104360950Y-72069251D01*
X104675608Y-72074901D01*
X104928609Y-72084829D01*
X105129405Y-72099454D01*
X105287449Y-72119192D01*
X105335897Y-72127669D01*
X105704786Y-72225674D01*
X106009077Y-72368978D01*
X106253517Y-72561733D01*
X106442853Y-72808086D01*
X106581832Y-73112189D01*
X106625510Y-73255087D01*
X106653392Y-73412138D01*
X106671604Y-73623979D01*
X106679948Y-73865324D01*
X106678228Y-74110888D01*
X106666247Y-74335385D01*
X106643809Y-74513527D01*
X106635597Y-74551777D01*
X106517806Y-74886881D01*
X106342992Y-75167393D01*
X106113245Y-75390525D01*
X105913392Y-75514895D01*
X105781936Y-75577340D01*
X105652426Y-75627768D01*
X105513980Y-75667659D01*
X105355714Y-75698492D01*
X105166743Y-75721745D01*
X104936185Y-75738897D01*
X104653155Y-75751428D01*
X104306770Y-75760816D01*
X104069444Y-75765459D01*
X102930476Y-75785689D01*
X102930476Y-72067460D01*
X99180952Y-72067460D01*
X99180952Y-78481976D01*
X102738968Y-78467535D01*
G36*
X97639331Y-77076905D02*
G01*
X97628730Y-75675873D01*
X95219761Y-75665477D01*
X92810793Y-75655080D01*
X92810793Y-63963651D01*
X89061269Y-63963651D01*
X89061269Y-75655714D01*
X84223174Y-75655714D01*
X84223174Y-78477937D01*
X97649933Y-78477937D01*
X97639331Y-77076905D01*
G37*
X97639331Y-77076905D02*
X97628730Y-75675873D01*
X95219761Y-75665477D01*
X92810793Y-75655080D01*
X92810793Y-63963651D01*
X89061269Y-63963651D01*
X89061269Y-75655714D01*
X84223174Y-75655714D01*
X84223174Y-78477937D01*
X97649933Y-78477937D01*
X97639331Y-77076905D01*
G36*
X129799448Y-78690883D02*
G01*
X130656921Y-78581309D01*
X131495747Y-78420749D01*
X132300926Y-78211748D01*
X133057458Y-77956849D01*
X133289523Y-77864891D01*
X133712857Y-77690411D01*
X133723430Y-76185728D01*
X133725021Y-75847078D01*
X133724960Y-75535764D01*
X133723366Y-75260518D01*
X133720357Y-75030066D01*
X133716051Y-74853137D01*
X133710565Y-74738460D01*
X133704019Y-74694764D01*
X133703272Y-74694650D01*
X133658341Y-74716257D01*
X133553985Y-74767198D01*
X133403105Y-74841153D01*
X133218599Y-74931804D01*
X133087936Y-74996102D01*
X132253182Y-75366739D01*
X131412749Y-75658772D01*
X130560569Y-75874231D01*
X130326190Y-75919811D01*
X130113051Y-75949670D01*
X129840721Y-75974372D01*
X129528764Y-75993386D01*
X129196748Y-76006181D01*
X128864237Y-76012227D01*
X128550799Y-76010993D01*
X128275999Y-76001948D01*
X128059403Y-75984562D01*
X128038076Y-75981867D01*
X127437442Y-75870881D01*
X126892593Y-75704256D01*
X126399092Y-75479975D01*
X125952504Y-75196020D01*
X125548392Y-74850373D01*
X125547365Y-74849365D01*
X125333996Y-74631807D01*
X125166747Y-74438955D01*
X125027741Y-74246463D01*
X124899098Y-74029985D01*
X124787155Y-73814188D01*
X124603072Y-73394385D01*
X124462299Y-72956792D01*
X124361516Y-72486544D01*
X124297404Y-71968773D01*
X124269847Y-71497743D01*
X124272135Y-70782176D01*
X124330377Y-70123164D01*
X124445210Y-69518594D01*
X124617269Y-68966353D01*
X124847192Y-68464328D01*
X125135614Y-68010406D01*
X125424451Y-67663791D01*
X125800810Y-67309205D01*
X126209347Y-67017062D01*
X126656815Y-66784342D01*
X127149966Y-66608029D01*
X127695554Y-66485104D01*
X128206663Y-66420243D01*
X128599542Y-66399918D01*
X129021268Y-66403225D01*
X129445409Y-66428536D01*
X129845528Y-66474224D01*
X130195192Y-66538661D01*
X130218045Y-66544060D01*
X130346761Y-66572470D01*
X130451036Y-66594959D01*
X130533414Y-66619682D01*
X130596441Y-66654793D01*
X130642662Y-66708448D01*
X130674621Y-66788800D01*
X130694865Y-66904006D01*
X130705938Y-67062219D01*
X130710386Y-67271594D01*
X130710753Y-67540287D01*
X130709585Y-67876452D01*
X130709206Y-68117768D01*
X130709206Y-69527460D01*
X128411111Y-69527460D01*
X128411111Y-72027143D01*
X134257142Y-72027143D01*
X134257142Y-65020684D01*
X133884206Y-64857243D01*
X133010457Y-64505134D01*
X132143455Y-64219798D01*
X131265271Y-63996656D01*
X130357971Y-63831127D01*
X129439206Y-63721830D01*
X129268643Y-63710521D01*
X129040480Y-63701404D01*
X128771995Y-63694589D01*
X128480467Y-63690186D01*
X128183174Y-63688304D01*
X127897393Y-63689053D01*
X127640404Y-63692542D01*
X127429483Y-63698882D01*
X127282222Y-63708150D01*
X126462229Y-63816051D01*
X125702056Y-63974363D01*
X124997023Y-64185108D01*
X124342449Y-64450307D01*
X123733652Y-64771982D01*
X123165951Y-65152155D01*
X122634666Y-65592848D01*
X122401607Y-65816052D01*
X121947198Y-66310756D01*
X121563717Y-66819123D01*
X121241478Y-67356839D01*
X120970801Y-67939587D01*
X120794776Y-68418730D01*
X120651063Y-68896742D01*
X120541529Y-69368663D01*
X120463468Y-69853179D01*
X120414177Y-70368977D01*
X120390951Y-70934745D01*
X120388267Y-71227174D01*
X120419104Y-72064834D01*
X120512725Y-72852725D01*
X120669652Y-73592320D01*
X120890408Y-74285089D01*
X121175517Y-74932507D01*
X121525501Y-75536046D01*
X121940885Y-76097177D01*
X122236968Y-76430185D01*
X122756713Y-76925944D01*
X123314531Y-77359595D01*
X123913423Y-77732325D01*
X124556385Y-78045323D01*
X125246417Y-78299774D01*
X125986518Y-78496867D01*
X126779686Y-78637787D01*
X127628919Y-78723724D01*
X128088571Y-78746900D01*
X128938331Y-78746928D01*
X129799448Y-78690883D01*
G37*
X129799448Y-78690883D02*
X130656921Y-78581309D01*
X131495747Y-78420749D01*
X132300926Y-78211748D01*
X133057458Y-77956849D01*
X133289523Y-77864891D01*
X133712857Y-77690411D01*
X133723430Y-76185728D01*
X133725021Y-75847078D01*
X133724960Y-75535764D01*
X133723366Y-75260518D01*
X133720357Y-75030066D01*
X133716051Y-74853137D01*
X133710565Y-74738460D01*
X133704019Y-74694764D01*
X133703272Y-74694650D01*
X133658341Y-74716257D01*
X133553985Y-74767198D01*
X133403105Y-74841153D01*
X133218599Y-74931804D01*
X133087936Y-74996102D01*
X132253182Y-75366739D01*
X131412749Y-75658772D01*
X130560569Y-75874231D01*
X130326190Y-75919811D01*
X130113051Y-75949670D01*
X129840721Y-75974372D01*
X129528764Y-75993386D01*
X129196748Y-76006181D01*
X128864237Y-76012227D01*
X128550799Y-76010993D01*
X128275999Y-76001948D01*
X128059403Y-75984562D01*
X128038076Y-75981867D01*
X127437442Y-75870881D01*
X126892593Y-75704256D01*
X126399092Y-75479975D01*
X125952504Y-75196020D01*
X125548392Y-74850373D01*
X125547365Y-74849365D01*
X125333996Y-74631807D01*
X125166747Y-74438955D01*
X125027741Y-74246463D01*
X124899098Y-74029985D01*
X124787155Y-73814188D01*
X124603072Y-73394385D01*
X124462299Y-72956792D01*
X124361516Y-72486544D01*
X124297404Y-71968773D01*
X124269847Y-71497743D01*
X124272135Y-70782176D01*
X124330377Y-70123164D01*
X124445210Y-69518594D01*
X124617269Y-68966353D01*
X124847192Y-68464328D01*
X125135614Y-68010406D01*
X125424451Y-67663791D01*
X125800810Y-67309205D01*
X126209347Y-67017062D01*
X126656815Y-66784342D01*
X127149966Y-66608029D01*
X127695554Y-66485104D01*
X128206663Y-66420243D01*
X128599542Y-66399918D01*
X129021268Y-66403225D01*
X129445409Y-66428536D01*
X129845528Y-66474224D01*
X130195192Y-66538661D01*
X130218045Y-66544060D01*
X130346761Y-66572470D01*
X130451036Y-66594959D01*
X130533414Y-66619682D01*
X130596441Y-66654793D01*
X130642662Y-66708448D01*
X130674621Y-66788800D01*
X130694865Y-66904006D01*
X130705938Y-67062219D01*
X130710386Y-67271594D01*
X130710753Y-67540287D01*
X130709585Y-67876452D01*
X130709206Y-68117768D01*
X130709206Y-69527460D01*
X128411111Y-69527460D01*
X128411111Y-72027143D01*
X134257142Y-72027143D01*
X134257142Y-65020684D01*
X133884206Y-64857243D01*
X133010457Y-64505134D01*
X132143455Y-64219798D01*
X131265271Y-63996656D01*
X130357971Y-63831127D01*
X129439206Y-63721830D01*
X129268643Y-63710521D01*
X129040480Y-63701404D01*
X128771995Y-63694589D01*
X128480467Y-63690186D01*
X128183174Y-63688304D01*
X127897393Y-63689053D01*
X127640404Y-63692542D01*
X127429483Y-63698882D01*
X127282222Y-63708150D01*
X126462229Y-63816051D01*
X125702056Y-63974363D01*
X124997023Y-64185108D01*
X124342449Y-64450307D01*
X123733652Y-64771982D01*
X123165951Y-65152155D01*
X122634666Y-65592848D01*
X122401607Y-65816052D01*
X121947198Y-66310756D01*
X121563717Y-66819123D01*
X121241478Y-67356839D01*
X120970801Y-67939587D01*
X120794776Y-68418730D01*
X120651063Y-68896742D01*
X120541529Y-69368663D01*
X120463468Y-69853179D01*
X120414177Y-70368977D01*
X120390951Y-70934745D01*
X120388267Y-71227174D01*
X120419104Y-72064834D01*
X120512725Y-72852725D01*
X120669652Y-73592320D01*
X120890408Y-74285089D01*
X121175517Y-74932507D01*
X121525501Y-75536046D01*
X121940885Y-76097177D01*
X122236968Y-76430185D01*
X122756713Y-76925944D01*
X123314531Y-77359595D01*
X123913423Y-77732325D01*
X124556385Y-78045323D01*
X125246417Y-78299774D01*
X125986518Y-78496867D01*
X126779686Y-78637787D01*
X127628919Y-78723724D01*
X128088571Y-78746900D01*
X128938331Y-78746928D01*
X129799448Y-78690883D01*
%TD*%
M02*
